:FULLY-SPECIFIED
:FORCE-ALL-JOINTS-BE-3DOF
:DEGREES
453
root 10.7995 17.4668 27.6748 5.27364 0.727804 2.30769
lfemur -18.5295 3.83686 -28.5308
ltibia 26.0934 -0 0
lfoot -12.8214 4.78298 -0.00283698
ltoes 0.182705 -0 0
rfemur -19.9129 -2.2673 16.9963
rtibia 65.3708 -0 0
rfoot -9.03048 -8.23836 -0.00561907
rtoes -19.1931 0 0
lowerback -5.45706 -1.18893 -2.90385
upperback -1.5099 -1.44794 1.33144
thorax 1.60818 -0.730692 2.89544
lowerneck -21.0639 -4.02408 -11.8107
upperneck 24.3229 -4.7211 10.6332
head 12.0459 -1.86977 5.2478
lclavicle -4.33705e-14 3.40027e-15 -2.88986e-31
lhumerus -25.5249 -12.0709 89.7854
lradius 20.7801 -0 0
lwrist -4.57045 0 0
lhand -11.2208 -23.435 -0.000141964
lfingers 7.12502 -0 0
lthumb 14.8079 6.01634 -1.92313e-05
rclavicle -4.33705e-14 3.40027e-15 -2.88986e-31
rhumerus -45.4768 10.5842 -88.2819
rradius 34.3057 -0 0
rwrist -12.6852 0 0
rhand -30.404 -31.7309 0.000442904
rfingers 7.12502 -0 0
rthumb -3.70763 -61.6784 0.000426585
454
root 10.8108 17.4709 27.8201 5.2387 0.817513 2.47443
lfemur -17.7529 3.87194 -28.721
ltibia 25.7459 -0 0
lfoot -12.9301 4.71437 -0.00578321
ltoes 0.388389 -0 0
rfemur -20.6941 -2.17291 16.7442
rtibia 65.6335 -0 0
rfoot -9.36701 -8.42885 -0.0122396
rtoes -18.9541 0 0
lowerback -5.41895 -1.2993 -3.02652
upperback -1.498 -1.58757 1.30115
thorax 1.60963 -0.801596 2.9163
lowerneck -21.1064 -3.97414 -11.7659
upperneck 24.3699 -4.65709 10.6103
head 12.0611 -1.83907 5.24375
lclavicle -4.29202e-14 4.03856e-15 -5.86115e-31
lhumerus -25.0102 -12.2661 89.6671
lradius 20.912 -0 0
lwrist -4.54651 0 0
lhand -11.3268 -23.505 -0.000307148
lfingers 7.12502 -0 0
lthumb 14.7058 5.9542 -5.48219e-05
rclavicle -4.29202e-14 4.03856e-15 -5.86115e-31
rhumerus -45.7282 10.4994 -88.2595
rradius 34.2861 -0 0
rwrist -12.7246 0 0
rhand -30.3978 -31.7048 0.00100833
rfingers 7.12502 -0 0
rthumb -3.70167 -61.6524 0.000971234
455
root 10.8219 17.4746 27.9707 5.2035 0.911841 2.64383
lfemur -16.9395 3.90649 -28.9099
ltibia 25.3692 -0 0
lfoot -13.042 4.64587 -0.00883423
ltoes 0.595931 -0 0
rfemur -21.4969 -2.06092 16.4833
rtibia 65.8488 -0 0
rfoot -9.72612 -8.61853 -0.0199488
rtoes -18.6921 0 0
lowerback -5.38142 -1.41377 -3.15196
upperback -1.48432 -1.73255 1.27075
thorax 1.61398 -0.875275 2.93798
lowerneck -21.1505 -3.92251 -11.7191
upperneck 24.4179 -4.59154 10.5883
head 12.0767 -1.80736 5.23997
lclavicle -4.23888e-14 4.69571e-15 -8.88798e-31
lhumerus -24.484 -12.4741 89.5444
lradius 21.0605 -0 0
lwrist -4.50948 0 0
lhand -11.4362 -23.578 -0.0005097
lfingers 7.12502 -0 0
lthumb 14.6004 5.88926 -0.000119579
rclavicle -4.23888e-14 4.69571e-15 -8.88798e-31
rhumerus -45.9842 10.4114 -88.2339
rradius 34.2687 -0 0
rwrist -12.7711 0 0
rhand -30.39 -31.6686 0.00169216
rfingers 7.12502 -0 0
rthumb -3.6941 -61.6163 0.00162997
456
root 10.833 17.4778 28.1261 5.16819 1.0105 2.8153
lfemur -16.092 3.94053 -29.0966
ltibia 24.9643 -0 0
lfoot -13.1568 4.57774 -0.0119837
ltoes 0.804613 -0 0
rfemur -22.3189 -1.93185 16.2141
rtibia 66.0155 -0 0
rfoot -10.1067 -8.8067 -0.0288174
rtoes -18.4079 0 0
lowerback -5.34459 -1.53196 -3.27975
upperback -1.46888 -1.88244 1.24034
thorax 1.62126 -0.951494 2.96042
lowerneck -21.1959 -3.86936 -11.6704
upperneck 24.4666 -4.52466 10.5671
head 12.0927 -1.77475 5.23648
lclavicle -4.17777e-14 5.36954e-15 -1.19443e-30
lhumerus -23.9477 -12.6943 89.4175
lradius 21.2252 -0 0
lwrist -4.45939 0 0
lhand -11.5487 -23.6537 -0.000762544
lfingers 7.12502 -0 0
lthumb 14.492 5.82175 -0.000225291
rclavicle -4.17777e-14 5.36954e-15 -1.19443e-30
rhumerus -46.2439 10.3207 -88.2051
rradius 34.2536 -0 0
rwrist -12.8245 0 0
rhand -30.3805 -31.6223 0.00248939
rfingers 7.12502 -0 0
rthumb -3.68493 -61.5701 0.00239798
457
root 10.8438 17.4805 28.2858 5.1329 1.11319 2.98828
lfemur -15.2129 3.97399 -29.2807
ltibia 24.5323 -0 0
lfoot -13.274 4.5102 -0.0152235
ltoes 1.01371 -0 0
rfemur -23.1575 -1.78618 15.9371
rtibia 66.1325 -0 0
rfoot -10.5078 -8.99267 -0.0388987
rtoes -18.1024 0 0
lowerback -5.3086 -1.65352 -3.40947
upperback -1.45171 -2.03676 1.21001
thorax 1.63145 -1.03002 2.98354
lowerneck -21.2425 -3.81484 -11.62
upperneck 24.516 -4.45666 10.5469
head 12.1091 -1.74134 5.23329
lclavicle -4.10879e-14 6.0579e-15 -1.5004e-30
lhumerus -23.4032 -12.9261 89.2864
lradius 21.4057 -0 0
lwrist -4.39624 0 0
lhand -11.664 -23.732 -0.00107722
lfingers 7.12502 -0 0
lthumb 14.381 5.75185 -0.000382584
rclavicle -4.10879e-14 6.0579e-15 -1.5004e-30
rhumerus -46.5065 10.2274 -88.1731
rradius 34.2408 -0 0
rwrist -12.8847 0 0
rhand -30.3694 -31.566 0.0033942
rfingers 7.12502 -0 0
rthumb -3.67418 -61.514 0.00326967
458
root 10.8544 17.4828 28.4494 5.09778 1.21963 3.16217
lfemur -14.3046 4.00679 -29.4613
ltibia 24.0742 -0 0
lfoot -13.3934 4.44352 -0.0185433
ltoes 1.22252 -0 0
rfemur -24.0102 -1.62437 15.6526
rtibia 66.1984 -0 0
rfoot -10.9282 -9.17575 -0.050227
rtoes -17.7761 0 0
lowerback -5.27356 -1.77807 -3.5407
upperback -1.43283 -2.19504 1.17988
thorax 1.64459 -1.11061 3.00725
lowerneck -21.2902 -3.75913 -11.5679
upperneck 24.5658 -4.38777 10.5278
head 12.1258 -1.70724 5.23042
lclavicle -4.03207e-14 6.75862e-15 -1.80413e-30
lhumerus -22.8521 -13.1688 89.1514
lradius 21.6016 -0 0
lwrist -4.32005 0 0
lhand -11.7816 -23.8126 -0.00146376
lfingers 7.12502 -0 0
lthumb 14.2677 5.67977 -0.000600804
rclavicle -4.03207e-14 6.75862e-15 -1.80413e-30
rhumerus -46.771 10.1319 -88.138
rradius 34.2304 -0 0
rwrist -12.9515 0 0
rhand -30.3566 -31.4997 0.00439994
rfingers 7.12502 -0 0
rthumb -3.66187 -61.4478 0.00423861
